

<svg preserveAspectRatio="xMidYMid meet"
     focusable="false"
     width="0"
     height="0"
     visibility="hidden"
     style="
        visibility: hidden;
        position: absolute;
        pointer-events: none;
    "
     xmlns="http://www.w3.org/2000/svg"
>
    <symbol id="wtx-icon" fill="none" viewBox="0 0 60 19" >
        <g clip-path="url(#clip0_685_8653)">
            <path fill="#0CEE77" d="M27.4334 18.7101L30.9963 4.22817C31.033 4.07653 30.9183 3.9338 30.7576 3.9338H25.0275C24.7888 3.9338 24.6143 3.71972 24.6694 3.49225L25.4637 0.272066C25.505 0.111502 25.652 0 25.8218 0H42.2635C42.4196 0 42.539 0.142723 42.5023 0.294366L41.6758 3.66174C41.6345 3.8223 41.4876 3.9338 41.3177 3.9338H35.3902C35.2204 3.9338 35.0734 4.04531 35.0321 4.20587L31.46 18.7279C31.4187 18.8885 31.2718 19 31.1019 19H27.6676C27.5115 19 27.3921 18.8573 27.4288 18.7056L27.4334 18.7101Z"/>
            <path fill="#0CEE77" d="M18.5674 0.272066L15.4544 12.9209C15.4223 13.0502 15.3488 13.1617 15.2432 13.2465L13.4434 14.6559C13.3378 14.7406 13.1771 14.7228 13.0945 14.6157L12.0247 13.2509C11.9558 13.1662 11.9329 13.0547 11.9604 12.9521L13.448 6.91315C13.4847 6.7615 13.37 6.61878 13.2093 6.61878H9.76573C9.59585 6.61878 9.44893 6.73028 9.4076 6.89085L7.92 12.9164C7.88786 13.0458 7.8144 13.1573 7.7088 13.2376L5.91357 14.6514C5.80797 14.7361 5.64727 14.7183 5.56463 14.6113L4.49943 13.2465C4.43056 13.1617 4.4076 13.0502 4.43515 12.9477L7.55728 0.294366C7.59401 0.142723 7.47923 0 7.31853 0H3.88419C3.71431 0 3.56738 0.111502 3.52606 0.272066L0.0136647 14.5354C-0.0184749 14.6737 0.0136647 14.8209 0.100901 14.9324L3.12661 18.8127C3.21844 18.9331 3.36536 19 3.51688 19H5.67482C5.81715 19 5.9503 18.9554 6.0605 18.8662L8.87501 16.654C8.98061 16.5693 9.1413 16.5871 9.22395 16.6941L10.8723 18.8082C10.9641 18.9286 11.111 18.9955 11.2625 18.9955H13.4205C13.5582 18.9955 13.6959 18.9509 13.8061 18.8617L18.8842 14.8744C18.9898 14.7941 19.0633 14.6782 19.0954 14.5488L22.6032 0.294366C22.6399 0.142723 22.5251 0 22.3644 0H18.9209C18.751 0 18.6041 0.111502 18.5628 0.272066H18.5674Z"/>
            <path fill="#0CEE77" d="M43.0763 14.5108C43.1084 14.3815 43.1819 14.2701 43.2875 14.1854L56.1433 4.11919C56.2489 4.03895 56.3224 3.92304 56.3545 3.79376L57.2912 0H56.3132C56.1433 0 55.9964 0.11145 55.9551 0.271938L55.2021 3.32567C55.1699 3.45495 55.0965 3.5664 54.9909 3.6511L51.2948 6.55326C51.1892 6.63796 51.0285 6.62013 50.9459 6.51314L48.7145 3.65556C48.6502 3.57086 48.6226 3.45941 48.6502 3.35688L49.4078 0.28977C49.4445 0.142656 49.3297 0 49.169 0H45.7255C45.5556 0 45.4087 0.11145 45.3674 0.271938L44.2195 4.93501C44.1874 5.07321 44.2195 5.22032 44.3068 5.33177L47.4059 9.30831C47.484 9.41084 47.4656 9.55796 47.3646 9.6382L42.1947 13.695C42.0891 13.7752 42.0157 13.8911 41.9835 14.0204L40.8311 18.7013C40.7944 18.8529 40.9091 18.9955 41.0698 18.9955H41.9652L43.0763 14.5108Z"/>
            <path fill="#0CEE77" d="M59.7568 0H58.8018L57.6632 4.60066C57.631 4.72994 57.5576 4.84139 57.452 4.92609L44.5961 14.9923C44.4905 15.0725 44.4171 15.1884 44.3849 15.3177L43.4758 18.9955H44.5089C44.6788 18.9955 44.8257 18.8841 44.867 18.7236L45.62 15.6699C45.6521 15.5406 45.7256 15.4291 45.8312 15.3444L49.5318 12.4423C49.6374 12.3576 49.7981 12.3754 49.8808 12.4824L52.1076 15.34C52.1719 15.4247 52.1994 15.5361 52.1719 15.6387L51.4143 18.7058C51.3776 18.8573 51.4924 19 51.6531 19H55.0966C55.2665 19 55.4134 18.8885 55.4547 18.7281L56.6026 14.0695C56.6347 13.9313 56.6025 13.7841 56.5153 13.6727L53.4207 9.68724C53.3427 9.5847 53.361 9.44205 53.4621 9.3618L58.6228 5.29165C58.7284 5.2114 58.8018 5.09549 58.834 4.97067L59.991 0.303144C60.0277 0.142656 59.9129 0 59.7568 0Z"/>
        </g>
        <defs>
            <clipPath id="clip0_685_8653">
                <rect fill="white" height="19" width="60"/>
            </clipPath>
        </defs>
    </symbol>
    <symbol id="split-icon" viewBox="0 0 128 128" fill="none" >
        <circle cx="64" cy="64" r="61" fill="none"/>
        <path d="M78.6811 37.1727C76.2181 37.1727 73.7551 37.1727 71.0185 37.1727C68.5555 37.1727 66.0926 37.1727 63.6296 37.1727H58.9773C59.251 37.4411 59.5247 37.7095 59.5247 37.7095L59.7983 37.9779C63.3559 41.1987 64.9979 45.2247 65.2716 50.0559C65.2716 51.6663 65.5452 53.2767 66.0926 54.8871C68.8292 63.7443 80.323 67.2335 87.9856 60.7919C92.3642 57.0343 93.7325 51.1295 91.5432 45.7615C89.9012 40.9303 84.7016 36.9043 78.6811 37.1727Z" fill="white"/>
        <path d="M54.8723 62.6708C56.2406 61.8656 57.6089 60.792 58.7036 59.45C64.9978 52.74 62.2612 40.9304 52.683 37.978C46.9361 36.0992 41.1892 37.978 37.6316 42.5408C34.3476 46.5668 33.5266 52.74 36.8106 57.8396C38.4525 60.792 40.3682 63.476 42.0102 66.4284C42.8311 67.7704 43.6521 69.3808 44.4731 70.7228C45.2941 72.0648 45.8414 73.1384 46.9361 74.7488C47.2097 74.212 47.2097 73.6752 47.2097 73.4068C48.3044 68.844 50.7674 65.3548 54.8723 62.6708Z" fill="white"/>
        <path d="M71.0184 65.8917C69.6501 65.0865 68.0081 64.5497 66.3662 64.2813C57.3353 62.1341 48.3044 70.1861 50.2201 80.1169C51.3147 85.7533 55.967 90.0477 61.4402 90.8529C66.3662 91.6581 72.6604 89.2425 75.397 83.8745C77.86 79.5801 80.323 75.2857 83.0596 70.9913C83.8806 69.6493 84.4279 68.5757 85.5226 66.9653C84.9752 67.2337 84.4279 67.2337 84.1542 67.2337C79.7756 68.3073 75.397 68.0389 71.0184 65.8917Z" fill="white"/>
    </symbol>
    <symbol id="geekathon-icon" version="1.1">
        <path d="M0 0 C1.16499023 -0.01836914 1.16499023 -0.01836914 2.35351562 -0.03710938 C6.27482309 -0.04724195 8.22868745 -0.0350417 11.5625 2.1875 C11.2325 4.1675 10.9025 6.1475 10.5625 8.1875 C9.5725 8.5175 8.5825 8.8475 7.5625 9.1875 C7.43875 10.095 7.315 11.0025 7.1875 11.9375 C6.23831047 16.87328554 6.23831047 16.87328554 4.5625 19.1875 C0.3960876 21.83885335 -2.55485523 22.41459976 -7.4375 22.1875 C-7.7675 22.5175 -8.0975 22.8475 -8.4375 23.1875 C-7.22513672 23.13529297 -7.22513672 23.13529297 -5.98828125 23.08203125 C-4.91964844 23.05496094 -3.85101563 23.02789063 -2.75 23 C-1.69425781 22.96519531 -0.63851563 22.93039063 0.44921875 22.89453125 C4.00255964 23.22891088 5.81223915 23.92316866 8.5625 26.1875 C9.52029571 29.24681217 9.281853 32.07967023 8.5625 35.1875 C4.75802442 39.19221114 1.70916588 40.35992261 -3.6875 40.5 C-4.62078125 40.53738281 -5.5540625 40.57476562 -6.515625 40.61328125 C-10.47480786 40.0363415 -12.49090988 38.89249561 -15.4375 36.1875 C-16.05859375 32.65625 -16.05859375 32.65625 -15.875 28.6875 C-15.83246094 27.3778125 -15.78992187 26.068125 -15.74609375 24.71875 C-15.4375 21.1875 -15.4375 21.1875 -14.84765625 18.84375 C-14.22073691 17.08010662 -14.22073691 17.08010662 -15.4375 15.1875 C-15.85821592 12.12829426 -15.92264117 9.2407254 -15.4375 6.1875 C-10.74478149 0.25985557 -7.18545269 0.00593349 0 0 Z M-6.4375 7.1875 C-7.54386395 9.57818734 -7.54386395 9.57818734 -8.4375 12.1875 C-8.1075 12.8475 -7.7775 13.5075 -7.4375 14.1875 C-5.43795254 14.23004356 -3.43708364 14.22830783 -1.4375 14.1875 C-0.14116379 13.12104885 -0.14116379 13.12104885 -0.375 10.625 C-0.395625 9.820625 -0.41625 9.01625 -0.4375 8.1875 C-3.4075 7.6925 -3.4075 7.6925 -6.4375 7.1875 Z M-8.4375 30.1875 C-8.1075 31.1775 -7.7775 32.1675 -7.4375 33.1875 C-4.7975 33.1875 -2.1575 33.1875 0.5625 33.1875 C0.5625 32.1975 0.5625 31.2075 0.5625 30.1875 C-2.4075 30.1875 -5.3775 30.1875 -8.4375 30.1875 Z " fill="#0F0F0F" transform="translate(27.4375,3.8125)"/>
        <path d="M0 0 C1.98 0 3.96 0 6 0 C6 13.2 6 26.4 6 40 C4.02 40 2.04 40 0 40 C0 26.8 0 13.6 0 0 Z " fill="#5382EB" transform="translate(42,4)"/>
        <path d="M0 0 C1.98 0 3.96 0 6 0 C6 13.2 6 26.4 6 40 C4.02 40 2.04 40 0 40 C0 26.8 0 13.6 0 0 Z " fill="#5382EB" transform="translate(0,4)"/>
    </symbol>

     <symbol id="link" fill="currentColor" viewBox="0 0 16 16">
        <path d="M6.354 5.5H4a3 3 0 0 0 0 6h3a3 3 0 0 0 2.83-4H9c-.086 0-.17.01-.25.031A2 2 0 0 1 7 10.5H4a2 2 0 1 1 0-4h1.535c.218-.376.495-.714.82-1z"/>
        <path d="M9 5.5a3 3 0 0 0-2.83 4h1.098A2 2 0 0 1 9 6.5h3a2 2 0 1 1 0 4h-1.535a4.02 4.02 0 0 1-.82 1H12a3 3 0 1 0 0-6H9z"/>
    </symbol>
    <symbol id="notes" fill="currentColor" viewBox="0 0 256 256">
        <path d="M88,96a8,8,0,0,1,8-8h64a8,8,0,0,1,0,16H96A8,8,0,0,1,88,96Zm8,40h64a8,8,0,0,0,0-16H96a8,8,0,0,0,0,16Zm32,16H96a8,8,0,0,0,0,16h32a8,8,0,0,0,0-16ZM224,48V156.69A15.86,15.86,0,0,1,219.31,168L168,219.31A15.86,15.86,0,0,1,156.69,224H48a16,16,0,0,1-16-16V48A16,16,0,0,1,48,32H208A16,16,0,0,1,224,48ZM48,208H152V160a8,8,0,0,1,8-8h48V48H48Zm120-40v28.7L196.69,168Z"/>
    </symbol>
    <symbol id="certificate" fill="currentColor" viewBox="0 0 256 256">
        <path d="M128,136a8,8,0,0,1-8,8H72a8,8,0,0,1,0-16h48A8,8,0,0,1,128,136Zm-8-40H72a8,8,0,0,0,0,16h48a8,8,0,0,0,0-16Zm112,65.47V224A8,8,0,0,1,220,231l-24-13.74L172,231A8,8,0,0,1,160,224V200H40a16,16,0,0,1-16-16V56A16,16,0,0,1,40,40H216a16,16,0,0,1,16,16V86.53a51.88,51.88,0,0,1,0,74.94ZM160,184V161.47A52,52,0,0,1,216,76V56H40V184Zm56-12a51.88,51.88,0,0,1-40,0v38.22l16-9.16a8,8,0,0,1,7.94,0l16,9.16Zm16-48a36,36,0,1,0-36,36A36,36,0,0,0,232,124Z"></path>
    </symbol>
</svg>