

<svg preserveAspectRatio="xMidYMid meet"
     focusable="false"
     width="0"
     height="0"
     visibility="hidden"
     style="
        visibility: hidden;
        position: absolute;
        pointer-events: none;
    "
     xmlns="http://www.w3.org/2000/svg"
>
    <symbol id="wtx-icon" fill="none" viewBox="0 0 60 19" >
        <g clip-path="url(#clip0_685_8653)">
            <path fill="#0CEE77" d="M27.4334 18.7101L30.9963 4.22817C31.033 4.07653 30.9183 3.9338 30.7576 3.9338H25.0275C24.7888 3.9338 24.6143 3.71972 24.6694 3.49225L25.4637 0.272066C25.505 0.111502 25.652 0 25.8218 0H42.2635C42.4196 0 42.539 0.142723 42.5023 0.294366L41.6758 3.66174C41.6345 3.8223 41.4876 3.9338 41.3177 3.9338H35.3902C35.2204 3.9338 35.0734 4.04531 35.0321 4.20587L31.46 18.7279C31.4187 18.8885 31.2718 19 31.1019 19H27.6676C27.5115 19 27.3921 18.8573 27.4288 18.7056L27.4334 18.7101Z"/>
            <path fill="#0CEE77" d="M18.5674 0.272066L15.4544 12.9209C15.4223 13.0502 15.3488 13.1617 15.2432 13.2465L13.4434 14.6559C13.3378 14.7406 13.1771 14.7228 13.0945 14.6157L12.0247 13.2509C11.9558 13.1662 11.9329 13.0547 11.9604 12.9521L13.448 6.91315C13.4847 6.7615 13.37 6.61878 13.2093 6.61878H9.76573C9.59585 6.61878 9.44893 6.73028 9.4076 6.89085L7.92 12.9164C7.88786 13.0458 7.8144 13.1573 7.7088 13.2376L5.91357 14.6514C5.80797 14.7361 5.64727 14.7183 5.56463 14.6113L4.49943 13.2465C4.43056 13.1617 4.4076 13.0502 4.43515 12.9477L7.55728 0.294366C7.59401 0.142723 7.47923 0 7.31853 0H3.88419C3.71431 0 3.56738 0.111502 3.52606 0.272066L0.0136647 14.5354C-0.0184749 14.6737 0.0136647 14.8209 0.100901 14.9324L3.12661 18.8127C3.21844 18.9331 3.36536 19 3.51688 19H5.67482C5.81715 19 5.9503 18.9554 6.0605 18.8662L8.87501 16.654C8.98061 16.5693 9.1413 16.5871 9.22395 16.6941L10.8723 18.8082C10.9641 18.9286 11.111 18.9955 11.2625 18.9955H13.4205C13.5582 18.9955 13.6959 18.9509 13.8061 18.8617L18.8842 14.8744C18.9898 14.7941 19.0633 14.6782 19.0954 14.5488L22.6032 0.294366C22.6399 0.142723 22.5251 0 22.3644 0H18.9209C18.751 0 18.6041 0.111502 18.5628 0.272066H18.5674Z"/>
            <path fill="#0CEE77" d="M43.0763 14.5108C43.1084 14.3815 43.1819 14.2701 43.2875 14.1854L56.1433 4.11919C56.2489 4.03895 56.3224 3.92304 56.3545 3.79376L57.2912 0H56.3132C56.1433 0 55.9964 0.11145 55.9551 0.271938L55.2021 3.32567C55.1699 3.45495 55.0965 3.5664 54.9909 3.6511L51.2948 6.55326C51.1892 6.63796 51.0285 6.62013 50.9459 6.51314L48.7145 3.65556C48.6502 3.57086 48.6226 3.45941 48.6502 3.35688L49.4078 0.28977C49.4445 0.142656 49.3297 0 49.169 0H45.7255C45.5556 0 45.4087 0.11145 45.3674 0.271938L44.2195 4.93501C44.1874 5.07321 44.2195 5.22032 44.3068 5.33177L47.4059 9.30831C47.484 9.41084 47.4656 9.55796 47.3646 9.6382L42.1947 13.695C42.0891 13.7752 42.0157 13.8911 41.9835 14.0204L40.8311 18.7013C40.7944 18.8529 40.9091 18.9955 41.0698 18.9955H41.9652L43.0763 14.5108Z"/>
            <path fill="#0CEE77" d="M59.7568 0H58.8018L57.6632 4.60066C57.631 4.72994 57.5576 4.84139 57.452 4.92609L44.5961 14.9923C44.4905 15.0725 44.4171 15.1884 44.3849 15.3177L43.4758 18.9955H44.5089C44.6788 18.9955 44.8257 18.8841 44.867 18.7236L45.62 15.6699C45.6521 15.5406 45.7256 15.4291 45.8312 15.3444L49.5318 12.4423C49.6374 12.3576 49.7981 12.3754 49.8808 12.4824L52.1076 15.34C52.1719 15.4247 52.1994 15.5361 52.1719 15.6387L51.4143 18.7058C51.3776 18.8573 51.4924 19 51.6531 19H55.0966C55.2665 19 55.4134 18.8885 55.4547 18.7281L56.6026 14.0695C56.6347 13.9313 56.6025 13.7841 56.5153 13.6727L53.4207 9.68724C53.3427 9.5847 53.361 9.44205 53.4621 9.3618L58.6228 5.29165C58.7284 5.2114 58.8018 5.09549 58.834 4.97067L59.991 0.303144C60.0277 0.142656 59.9129 0 59.7568 0Z"/>
        </g>
        <defs>
            <clipPath id="clip0_685_8653">
                <rect fill="white" height="19" width="60"/>
            </clipPath>
        </defs>
    </symbol>
    <symbol id="link" fill="currentColor" viewBox="0 0 16 16">
        <path d="M6.354 5.5H4a3 3 0 0 0 0 6h3a3 3 0 0 0 2.83-4H9c-.086 0-.17.01-.25.031A2 2 0 0 1 7 10.5H4a2 2 0 1 1 0-4h1.535c.218-.376.495-.714.82-1z"/>
        <path d="M9 5.5a3 3 0 0 0-2.83 4h1.098A2 2 0 0 1 9 6.5h3a2 2 0 1 1 0 4h-1.535a4.02 4.02 0 0 1-.82 1H12a3 3 0 1 0 0-6H9z"/>
    </symbol>
</svg>