<svg preserveAspectRatio="xMidYMid meet"
     focusable="false"
     width="0"
     height="0"
     visibility="hidden"
     style="
        visibility: hidden;
        position: absolute;
        pointer-events: none;
    "
     xmlns="http://www.w3.org/2000/svg"
>
    <symbol id="tailwind" viewBox="0 0 24 24" fill="currentColor">
        <path d="M12.001,4.8c-3.2,0-5.2,1.6-6,4.8c1.2-1.6,2.6-2.2,4.2-1.8c0.913,0.228,1.565,0.89,2.288,1.624 C13.666,10.618,15.027,12,18.001,12c3.2,0,5.2-1.6,6-4.8c-1.2,1.6-2.6,2.2-4.2,1.8c-0.913-0.228-1.565-0.89-2.288-1.624 C16.337,6.182,14.976,4.8,12.001,4.8z M6.001,12c-3.2,0-5.2,1.6-6,4.8c1.2-1.6,2.6-2.2,4.2-1.8c0.913,0.228,1.565,0.89,2.288,1.624 c1.177,1.194,2.538,2.576,5.512,2.576c3.2,0,5.2-1.6,6-4.8c-1.2,1.6-2.6,2.2-4.2,1.8c-0.913-0.228-1.565-0.89-2.288-1.624 C10.337,13.382,8.976,12,6.001,12z"/>
    </symbol>
    <symbol id="css" role="img" viewBox="0 0 24 24" fill="currentColor">
        <path d="M1.5 0h21l-1.91 21.563L11.977 24l-8.565-2.438L1.5 0zm17.09 4.413L5.41 4.41l.213 2.622 10.125.002-.255 2.716h-6.64l.24 2.573h6.182l-.366 3.523-2.91.804-2.956-.81-.188-2.11h-2.61l.29 3.855L12 19.288l5.373-1.53L18.59 4.414z"/>
    </symbol>
    <symbol id="javascript" viewBox="0 0 24 24" fill="currentColor">
        <path d="M0 0h24v24H0V0zm22.034 18.276c-.175-1.095-.888-2.015-3.003-2.873-.736-.345-1.554-.585-1.797-1.14-.091-.33-.105-.51-.046-.705.15-.646.915-.84 1.515-.66.39.12.75.42.976.9 1.034-.676 1.034-.676 1.755-1.125-.27-.42-.404-.601-.586-.78-.63-.705-1.469-1.065-2.834-1.034l-.705.089c-.676.165-1.32.525-1.71 1.005-1.14 1.291-.811 3.541.569 4.471 1.365 1.02 3.361 1.244 3.616 2.205.24 1.17-.87 1.545-1.966 1.41-.811-.18-1.26-.586-1.755-1.336l-1.83 1.051c.21.48.45.689.81 1.109 1.74 1.756 6.09 1.666 6.871-1.004.029-.09.24-.705.074-1.65l.046.067zm-8.983-7.245h-2.248c0 1.938-.009 3.864-.009 5.805 0 1.232.063 2.363-.138 2.711-.33.689-1.18.601-1.566.48-.396-.196-.597-.466-.83-.855-.063-.105-.11-.196-.127-.196l-1.825 1.125c.305.63.75 1.172 1.324 1.517.855.51 2.004.675 3.207.405.783-.226 1.458-.691 1.811-1.411.51-.93.402-2.07.397-3.346.012-2.054 0-4.109 0-6.179l.004-.056z"/>
    </symbol>
    <symbol id="html" viewBox="0 0 24 24" fill="currentColor">
        <path d="M1.5 0h21l-1.91 21.563L11.977 24l-8.564-2.438L1.5 0zm7.031 9.75l-.232-2.718 10.059.003.23-2.622L5.412 4.41l.698 8.01h9.126l-.326 3.426-2.91.804-2.955-.81-.188-2.11H6.248l.33 4.171L12 19.351l5.379-1.443.744-8.157H8.531z"/>
    </symbol>
    <symbol id="react" viewBox="0 0 24 24" fill="currentColor">
        <path d="M14.23 12.004a2.236 2.236 0 0 1-2.235 2.236 2.236 2.236 0 0 1-2.236-2.236 2.236 2.236 0 0 1 2.235-2.236 2.236 2.236 0 0 1 2.236 2.236zm2.648-10.69c-1.346 0-3.107.96-4.888 2.622-1.78-1.653-3.542-2.602-4.887-2.602-.41 0-.783.093-1.106.278-1.375.793-1.683 3.264-.973 6.365C1.98 8.917 0 10.42 0 12.004c0 1.59 1.99 3.097 5.043 4.03-.704 3.113-.39 5.588.988 6.38.32.187.69.275 1.102.275 1.345 0 3.107-.96 4.888-2.624 1.78 1.654 3.542 2.603 4.887 2.603.41 0 .783-.09 1.106-.275 1.374-.792 1.683-3.263.973-6.365C22.02 15.096 24 13.59 24 12.004c0-1.59-1.99-3.097-5.043-4.032.704-3.11.39-5.587-.988-6.38-.318-.184-.688-.277-1.092-.278zm-.005 1.09v.006c.225 0 .406.044.558.127.666.382.955 1.835.73 3.704-.054.46-.142.945-.25 1.44-.96-.236-2.006-.417-3.107-.534-.66-.905-1.345-1.727-2.035-2.447 1.592-1.48 3.087-2.292 4.105-2.295zm-9.77.02c1.012 0 2.514.808 4.11 2.28-.686.72-1.37 1.537-2.02 2.442-1.107.117-2.154.298-3.113.538-.112-.49-.195-.964-.254-1.42-.23-1.868.054-3.32.714-3.707.19-.09.4-.127.563-.132zm4.882 3.05c.455.468.91.992 1.36 1.564-.44-.02-.89-.034-1.345-.034-.46 0-.915.01-1.36.034.44-.572.895-1.096 1.345-1.565zM12 8.1c.74 0 1.477.034 2.202.093.406.582.802 1.203 1.183 1.86.372.64.71 1.29 1.018 1.946-.308.655-.646 1.31-1.013 1.95-.38.66-.773 1.288-1.18 1.87-.728.063-1.466.098-2.21.098-.74 0-1.477-.035-2.202-.093-.406-.582-.802-1.204-1.183-1.86-.372-.64-.71-1.29-1.018-1.946.303-.657.646-1.313 1.013-1.954.38-.66.773-1.286 1.18-1.868.728-.064 1.466-.098 2.21-.098zm-3.635.254c-.24.377-.48.763-.704 1.16-.225.39-.435.782-.635 1.174-.265-.656-.49-1.31-.676-1.947.64-.15 1.315-.283 2.015-.386zm7.26 0c.695.103 1.365.23 2.006.387-.18.632-.405 1.282-.66 1.933-.2-.39-.41-.783-.64-1.174-.225-.392-.465-.774-.705-1.146zm3.063.675c.484.15.944.317 1.375.498 1.732.74 2.852 1.708 2.852 2.476-.005.768-1.125 1.74-2.857 2.475-.42.18-.88.342-1.355.493-.28-.958-.646-1.956-1.1-2.98.45-1.017.81-2.01 1.085-2.964zm-13.395.004c.278.96.645 1.957 1.1 2.98-.45 1.017-.812 2.01-1.086 2.964-.484-.15-.944-.318-1.37-.5-1.732-.737-2.852-1.706-2.852-2.474 0-.768 1.12-1.742 2.852-2.476.42-.18.88-.342 1.356-.494zm11.678 4.28c.265.657.49 1.312.676 1.948-.64.157-1.316.29-2.016.39.24-.375.48-.762.705-1.158.225-.39.435-.788.636-1.18zm-9.945.02c.2.392.41.783.64 1.175.23.39.465.772.705 1.143-.695-.102-1.365-.23-2.006-.386.18-.63.406-1.282.66-1.933zM17.92 16.32c.112.493.2.968.254 1.423.23 1.868-.054 3.32-.714 3.708-.147.09-.338.128-.563.128-1.012 0-2.514-.807-4.11-2.28.686-.72 1.37-1.536 2.02-2.44 1.107-.118 2.154-.3 3.113-.54zm-11.83.01c.96.234 2.006.415 3.107.532.66.905 1.345 1.727 2.035 2.446-1.595 1.483-3.092 2.295-4.11 2.295-.22-.005-.406-.05-.553-.132-.666-.38-.955-1.834-.73-3.703.054-.46.142-.944.25-1.438zm4.56.64c.44.02.89.034 1.345.034.46 0 .915-.01 1.36-.034-.44.572-.895 1.095-1.345 1.565-.455-.47-.91-.993-1.36-1.565z"/>
    </symbol>
    <symbol id="next" viewBox="0 0 24 24" fill="currentColor">
        <path d="M11.5725 0c-.1763 0-.3098.0013-.3584.0067-.0516.0053-.2159.021-.3636.0328-3.4088.3073-6.6017 2.1463-8.624 4.9728C1.1004 6.584.3802 8.3666.1082 10.255c-.0962.659-.108.8537-.108 1.7474s.012 1.0884.108 1.7476c.652 4.506 3.8591 8.2919 8.2087 9.6945.7789.2511 1.6.4223 2.5337.5255.3636.04 1.9354.04 2.299 0 1.6117-.1783 2.9772-.577 4.3237-1.2643.2065-.1056.2464-.1337.2183-.1573-.0188-.0139-.8987-1.1938-1.9543-2.62l-1.919-2.592-2.4047-3.5583c-1.3231-1.9564-2.4117-3.556-2.4211-3.556-.0094-.0026-.0187 1.5787-.0235 3.509-.0067 3.3802-.0093 3.5162-.0516 3.596-.061.115-.108.1618-.2064.2134-.075.0374-.1408.0445-.495.0445h-.406l-.1078-.068a.4383.4383 0 01-.1572-.1712l-.0493-.1056.0053-4.703.0067-4.7054.0726-.0915c.0376-.0493.1174-.1125.1736-.143.0962-.047.1338-.0517.5396-.0517.4787 0 .5584.0187.6827.1547.0353.0377 1.3373 1.9987 2.895 4.3608a10760.433 10760.433 0 004.7344 7.1706l1.9002 2.8782.096-.0633c.8518-.5536 1.7525-1.3418 2.4657-2.1627 1.5179-1.7429 2.4963-3.868 2.8247-6.134.0961-.6591.1078-.854.1078-1.7475 0-.8937-.012-1.0884-.1078-1.7476-.6522-4.506-3.8592-8.2919-8.2087-9.6945-.7672-.2487-1.5836-.42-2.4985-.5232-.169-.0176-1.0835-.0366-1.6123-.037zm4.0685 7.217c.3473 0 .4082.0053.4857.047.1127.0562.204.1642.237.2767.0186.061.0234 1.3653.0186 4.3044l-.0067 4.2175-.7436-1.14-.7461-1.14v-3.066c0-1.982.0093-3.0963.0234-3.1502.0375-.1313.1196-.2346.2323-.2955.0961-.0494.1313-.054.4997-.054z"/>
    </symbol>
    <symbol id="node" viewBox="0 0 24 24" fill="currentColor">
        <path d="M11.998,24c-0.321,0-0.641-0.084-0.922-0.247l-2.936-1.737c-0.438-0.245-0.224-0.332-0.08-0.383 c0.585-0.203,0.703-0.25,1.328-0.604c0.065-0.037,0.151-0.023,0.218,0.017l2.256,1.339c0.082,0.045,0.197,0.045,0.272,0l8.795-5.076 c0.082-0.047,0.134-0.141,0.134-0.238V6.921c0-0.099-0.053-0.192-0.137-0.242l-8.791-5.072c-0.081-0.047-0.189-0.047-0.271,0 L3.075,6.68C2.99,6.729,2.936,6.825,2.936,6.921v10.15c0,0.097,0.054,0.189,0.139,0.235l2.409,1.392 c1.307,0.654,2.108-0.116,2.108-0.89V7.787c0-0.142,0.114-0.253,0.256-0.253h1.115c0.139,0,0.255,0.112,0.255,0.253v10.021 c0,1.745-0.95,2.745-2.604,2.745c-0.508,0-0.909,0-2.026-0.551L2.28,18.675c-0.57-0.329-0.922-0.945-0.922-1.604V6.921 c0-0.659,0.353-1.275,0.922-1.603l8.795-5.082c0.557-0.315,1.296-0.315,1.848,0l8.794,5.082c0.57,0.329,0.924,0.944,0.924,1.603 v10.15c0,0.659-0.354,1.273-0.924,1.604l-8.794,5.078C12.643,23.916,12.324,24,11.998,24z M19.099,13.993 c0-1.9-1.284-2.406-3.987-2.763c-2.731-0.361-3.009-0.548-3.009-1.187c0-0.528,0.235-1.233,2.258-1.233 c1.807,0,2.473,0.389,2.747,1.607c0.024,0.115,0.129,0.199,0.247,0.199h1.141c0.071,0,0.138-0.031,0.186-0.081 c0.048-0.054,0.074-0.123,0.067-0.196c-0.177-2.098-1.571-3.076-4.388-3.076c-2.508,0-4.004,1.058-4.004,2.833 c0,1.925,1.488,2.457,3.895,2.695c2.88,0.282,3.103,0.703,3.103,1.269c0,0.983-0.789,1.402-2.642,1.402 c-2.327,0-2.839-0.584-3.011-1.742c-0.02-0.124-0.126-0.215-0.253-0.215h-1.137c-0.141,0-0.254,0.112-0.254,0.253 c0,1.482,0.806,3.248,4.655,3.248C17.501,17.007,19.099,15.91,19.099,13.993z"/>
    </symbol>
    <symbol id="nest" viewBox="0 0 24 24" fill="currentColor">
        <path d="M14.131.047c-.173 0-.334.037-.483.087.316.21.49.49.576.806.007.043.019.074.025.117a.681.681 0 0 1 .013.112c.024.545-.143.614-.26.936-.18.415-.13.861.086 1.22a.74.74 0 0 0 .074.137c-.235-1.568 1.073-1.803 1.314-2.293.019-.428-.334-.713-.613-.911a1.37 1.37 0 0 0-.732-.21zM16.102.4c-.024.143-.006.106-.012.18-.006.05-.006.112-.012.161-.013.05-.025.1-.044.149-.012.05-.03.1-.05.149l-.067.142c-.02.025-.031.05-.05.075l-.037.055a2.152 2.152 0 0 1-.093.124c-.037.038-.068.081-.112.112v.006c-.037.031-.074.068-.118.1-.13.099-.278.173-.415.266-.043.03-.087.056-.124.093a.906.906 0 0 0-.118.099c-.043.037-.074.074-.111.118-.031.037-.068.08-.093.124a1.582 1.582 0 0 0-.087.13c-.025.05-.043.093-.068.142-.019.05-.037.093-.05.143a2.007 2.007 0 0 0-.043.155c-.006.025-.006.056-.012.08-.007.025-.007.05-.013.075 0 .05-.006.105-.006.155 0 .037 0 .074.006.111 0 .05.006.1.019.155.006.05.018.1.03.15.02.049.032.098.05.148.013.03.031.062.044.087l-1.426-.552c-.241-.068-.477-.13-.719-.186l-.39-.093c-.372-.074-.75-.13-1.128-.167-.013 0-.019-.006-.031-.006A11.082 11.082 0 0 0 8.9 2.855c-.378.025-.756.074-1.134.136a12.45 12.45 0 0 0-.837.174l-.279.074c-.092.037-.18.08-.266.118l-.205.093c-.012.006-.024.006-.03.012-.063.031-.118.056-.174.087a2.738 2.738 0 0 0-.236.118c-.043.018-.086.043-.124.062a.559.559 0 0 1-.055.03c-.056.032-.112.063-.162.094a1.56 1.56 0 0 0-.148.093c-.044.03-.087.055-.124.086-.006.007-.013.007-.019.013-.037.025-.08.056-.118.087l-.012.012-.093.074c-.012.007-.025.019-.037.025-.031.025-.062.056-.093.08-.006.013-.019.02-.025.025-.037.038-.074.069-.111.106-.007 0-.007.006-.013.012a1.742 1.742 0 0 0-.111.106c-.007.006-.007.012-.013.012a1.454 1.454 0 0 0-.093.1c-.012.012-.03.024-.043.036a1.374 1.374 0 0 1-.106.112c-.006.012-.018.019-.024.03-.05.05-.093.1-.143.15l-.018.018c-.1.106-.205.211-.317.304-.111.1-.229.192-.347.273a3.777 3.777 0 0 1-.762.421c-.13.056-.267.106-.403.149-.26.056-.527.161-.756.18-.05 0-.105.012-.155.018l-.155.037-.149.056c-.05.019-.099.044-.148.068-.044.031-.093.056-.137.087a1.011 1.011 0 0 0-.124.106c-.043.03-.087.074-.124.111-.037.043-.074.08-.105.124-.031.05-.068.093-.093.143a1.092 1.092 0 0 0-.087.142c-.025.056-.05.106-.068.161-.019.05-.037.106-.056.161-.012.05-.025.1-.03.15 0 .005-.007.012-.007.018-.012.056-.012.13-.019.167C.006 7.95 0 7.986 0 8.03a.657.657 0 0 0 .074.31v.006c.019.037.044.075.069.112.024.037.05.074.08.111.031.031.068.069.106.1a.906.906 0 0 0 .117.099c.149.13.186.173.378.272.031.019.062.031.1.05.006 0 .012.006.018.006 0 .013 0 .019.006.031a1.272 1.272 0 0 0 .08.298c.02.037.032.074.05.111.007.013.013.025.02.031.024.05.049.093.073.137l.093.13c.031.037.069.08.106.118.037.037.074.068.118.105 0 0 .006.006.012.006.037.031.074.062.112.087a.986.986 0 0 0 .136.08c.043.025.093.05.142.069a.73.73 0 0 0 .124.043c.007.006.013.006.025.012.025.007.056.013.08.019-.018.335-.024.65.026.762.055.124.328-.254.6-.688-.036.428-.061.93 0 1.079.069.155.44-.329.763-.862 4.395-1.016 8.405 2.02 8.826 6.31-.08-.67-.905-1.041-1.283-.948-.186.458-.502 1.047-1.01 1.413.043-.41.025-.83-.062-1.24a4.009 4.009 0 0 1-.769 1.562c-.588.043-1.177-.242-1.487-.67-.025-.018-.031-.055-.05-.08-.018-.043-.037-.087-.05-.13a.515.515 0 0 1-.037-.13c-.006-.044-.006-.087-.006-.137v-.093a.992.992 0 0 1 .031-.13c.013-.043.025-.086.044-.13.024-.043.043-.087.074-.13.105-.298.105-.54-.087-.682a.706.706 0 0 0-.118-.062c-.024-.006-.055-.018-.08-.025l-.05-.018a.847.847 0 0 0-.13-.031.472.472 0 0 0-.13-.019 1.01 1.01 0 0 0-.136-.012c-.031 0-.062.006-.093.006a.484.484 0 0 0-.137.019c-.043.006-.086.012-.13.024a1.068 1.068 0 0 0-.13.044c-.043.018-.08.037-.124.056-.037.018-.074.043-.118.062-1.444.942-.582 3.148.403 3.787-.372.068-.75.148-.855.229l-.013.012c.267.161.546.298.837.416.397.13.818.247 1.004.297v.006a5.996 5.996 0 0 0 1.562.112c2.746-.192 4.996-2.281 5.405-5.033l.037.161c.019.112.043.23.056.347v.006c.012.056.018.112.025.162v.024c.006.056.012.112.012.162.006.068.012.136.012.204v.1c0 .03.007.067.007.098 0 .038-.007.075-.007.112v.087c0 .043-.006.08-.006.124 0 .025 0 .05-.006.08 0 .044-.006.087-.006.137-.006.018-.006.037-.006.055l-.02.143c0 .019 0 .037-.005.056-.007.062-.019.118-.025.18v.012l-.037.174v.018l-.037.167c0 .007-.007.02-.007.025a1.663 1.663 0 0 1-.043.168v.018c-.019.062-.037.118-.05.174-.006.006-.006.012-.006.012l-.056.186c-.024.062-.043.118-.068.18-.025.062-.043.124-.068.18-.025.062-.05.117-.074.18h-.007c-.024.055-.05.117-.08.173a.302.302 0 0 1-.019.043c-.006.006-.006.013-.012.019a5.867 5.867 0 0 1-1.742 2.082c-.05.031-.099.069-.149.106-.012.012-.03.018-.043.03a2.603 2.603 0 0 1-.136.094l.018.037h.007l.26-.037h.006c.161-.025.322-.056.483-.087.044-.006.093-.019.137-.031l.087-.019c.043-.006.086-.018.13-.024.037-.013.074-.02.111-.031.62-.15 1.221-.354 1.798-.595a9.926 9.926 0 0 1-3.85 3.142c.714-.05 1.426-.167 2.114-.366a9.903 9.903 0 0 0 5.857-4.68 9.893 9.893 0 0 1-1.667 3.986 9.758 9.758 0 0 0 1.655-1.376 9.824 9.824 0 0 0 2.61-5.268c.21.98.272 1.99.18 2.987 4.474-6.241.371-12.712-1.346-14.416-.006-.013-.012-.019-.012-.031-.006.006-.006.006-.006.012 0-.006 0-.006-.007-.012 0 .074-.006.148-.012.223a8.34 8.34 0 0 1-.062.415c-.03.136-.068.273-.105.41-.044.13-.093.266-.15.396a5.322 5.322 0 0 1-.185.378 4.735 4.735 0 0 1-.477.688c-.093.111-.192.21-.292.31a3.994 3.994 0 0 1-.18.155l-.142.124a3.459 3.459 0 0 1-.347.241 4.295 4.295 0 0 1-.366.211c-.13.062-.26.118-.39.174a4.364 4.364 0 0 1-.818.223c-.143.025-.285.037-.422.05a4.914 4.914 0 0 1-.297.012 4.66 4.66 0 0 1-.422-.025 3.137 3.137 0 0 1-.421-.062 3.136 3.136 0 0 1-.415-.105h-.007c.137-.013.273-.025.41-.05a4.493 4.493 0 0 0 .818-.223c.136-.05.266-.112.39-.174.13-.062.248-.13.372-.204.118-.08.235-.161.347-.248.112-.087.217-.18.316-.279.105-.093.198-.198.291-.304.093-.111.18-.223.26-.334.013-.019.026-.044.038-.062.062-.1.124-.199.18-.298a4.272 4.272 0 0 0 .334-.775c.044-.13.075-.266.106-.403.025-.142.05-.278.062-.415.012-.142.025-.285.025-.421 0-.1-.007-.199-.013-.298a6.726 6.726 0 0 0-.05-.415 4.493 4.493 0 0 0-.092-.415c-.044-.13-.087-.267-.137-.397-.05-.13-.111-.26-.173-.384-.069-.124-.137-.248-.211-.366a6.843 6.843 0 0 0-.248-.34c-.093-.106-.186-.212-.285-.317a3.878 3.878 0 0 0-.161-.155c-.28-.217-.57-.421-.862-.607a1.154 1.154 0 0 0-.124-.062 2.415 2.415 0 0 0-.589-.26Z"/>
    </symbol>
    <symbol id="typescript"  viewBox="0 0 24 24" fill="currentColor">
        <path d="M1.125 0C.502 0 0 .502 0 1.125v21.75C0 23.498.502 24 1.125 24h21.75c.623 0 1.125-.502 1.125-1.125V1.125C24 .502 23.498 0 22.875 0zm17.363 9.75c.612 0 1.154.037 1.627.111a6.38 6.38 0 0 1 1.306.34v2.458a3.95 3.95 0 0 0-.643-.361 5.093 5.093 0 0 0-.717-.26 5.453 5.453 0 0 0-1.426-.2c-.3 0-.573.028-.819.086a2.1 2.1 0 0 0-.623.242c-.17.104-.3.229-.393.374a.888.888 0 0 0-.14.49c0 .196.053.373.156.529.104.156.252.304.443.444s.423.276.696.41c.273.135.582.274.926.416.47.197.892.407 1.266.628.374.222.695.473.963.753.268.279.472.598.614.957.142.359.214.776.214 1.253 0 .657-.125 1.21-.373 1.656a3.033 3.033 0 0 1-1.012 1.085 4.38 4.38 0 0 1-1.487.596c-.566.12-1.163.18-1.79.18a9.916 9.916 0 0 1-1.84-.164 5.544 5.544 0 0 1-1.512-.493v-2.63a5.033 5.033 0 0 0 3.237 1.2c.333 0 .624-.03.872-.09.249-.06.456-.144.623-.25.166-.108.29-.234.373-.38a1.023 1.023 0 0 0-.074-1.089 2.12 2.12 0 0 0-.537-.5 5.597 5.597 0 0 0-.807-.444 27.72 27.72 0 0 0-1.007-.436c-.918-.383-1.602-.852-2.053-1.405-.45-.553-.676-1.222-.676-2.005 0-.614.123-1.141.369-1.582.246-.441.58-.804 1.004-1.089a4.494 4.494 0 0 1 1.47-.629 7.536 7.536 0 0 1 1.77-.201zm-15.113.188h9.563v2.166H9.506v9.646H6.789v-9.646H3.375z"/>
    </symbol>
    <symbol id="styled-components" viewBox="0 0 24 24" fill="currentColor">
        <path d="M16.214 6.762l-.075.391c-.116.741-.074.953.244 1.228l.307.254-.318 1.418c-.19.846-.423 1.555-.571 1.788-.127.201-.275.497-.307.656-.053.19-.233.381-.508.55-.243.138-.72.508-1.058.805-.27.243-.456.392-.557.456l-.33.261c-.106.17-.166.307-.189.411-.023.107-.01.178.024.23.033.05.09.085.168.107a.954.954 0 00.282.023 3 3 0 00.632-.112c.07-.019.125-.037.173-.053.074-.091.245-.263.548-.562.804-.793 1.111-1.227.794-1.11-.117.042-.064-.064.137-.276.424-.413.667-1.037 1.175-2.994.402-1.545.402-1.567.698-1.567.139 0 .532.024.532.024V6.762h-.902zm3.839 3.165c-.064 0-.17.096-.233.202-.116.19.021.306 1.767 1.396 1.037.657 1.873 1.217 1.852 1.26-.021.031-.868.582-1.883 1.217-1.842 1.142-1.852 1.153-1.683 1.386.212.275 0 .37 2.391-1.122L24 13.155v-.836l-1.937-1.196c-1.047-.656-1.957-1.185-2.01-1.196zm-16.085.117c-.053 0-.963.54-2.01 1.185L0 12.425v.836l1.947 1.217c1.08.666 1.99 1.217 2.032 1.217.042 0 .127-.096.212-.212.127-.201.02-.286-1.768-1.418C.72 12.996.54 12.848.71 12.732c.106-.074.91-.572 1.778-1.111 1.979-1.217 1.873-1.133 1.714-1.387-.063-.105-.17-.2-.233-.19zm8.684.023c-.292-.002-.92.443-2.8 1.978-.081.193-.088.326-.051.412.024.059.068.1.129.13.06.03.138.048.224.055.171.015.373-.012.536-.044l.11-.025a.386.386 0 01.144-.118c.116-.064.603-.508 1.09-.984.857-.868 1.058-1.26.709-1.387a.24.24 0 00-.09-.017zm2.196.603c-.257.007-.72.305-1.513.938-.398.323-.65.497-.785.533l-.524.414c-.197.36-.226.583-.174.706a.25.25 0 00.138.134.644.644 0 00.24.045 2.18 2.18 0 00.58-.085 3.466 3.466 0 00.291-.092l.029-.012.053-.028c.1-.129.33-.372.618-.652.91-.878 1.375-1.502 1.28-1.735-.043-.113-.117-.17-.233-.166zm-2.424 1.08c-.074.008-.24.136-.539.398-.432.382-.903.602-1.066.504a3.97 3.97 0 01-.114.024c-.166.033-.373.06-.558.045a.708.708 0 01-.252-.063.337.337 0 01-.168-.17c-.037-.09-.037-.202.005-.345l-.65.534-1.471 1.217V15.867l4.82-3.797a.41.41 0 01.016-.123c.037-.134.035-.202-.023-.196zm2.074.639c-.073 0-.195.103-.39.31-.265.283-.682.557-.903.613l-.034.018a2.191 2.191 0 01-.11.042c-.06.02-.138.044-.228.068-.18.049-.404.094-.604.089a.732.732 0 01-.275-.054.344.344 0 01-.184-.18c-.058-.139-.035-.334.092-.611L7.61 16.033v1.205h1.868l3.962-3.112c.103-.114.258-.27.467-.465.56-.519.687-.698.687-.963 0-.206-.023-.31-.096-.31zm.943 1.95l-.339.338c-.19.18-.529.402-.761.497l-.046.02-.003.005-.01.01c-.009.007-.013.008-.02.011a3.432 3.432 0 01-.282.093 3.058 3.058 0 01-.65.115 1.035 1.035 0 01-.31-.027.364.364 0 01-.218-.144c-.048-.074-.062-.173-.035-.295a1.11 1.11 0 01.095-.25l-3.197 2.526h4.252l.508-.582c.698-.814 1.016-1.396 1.016-1.894z"/>
    </symbol>
    <symbol id="react-hook-form"  viewBox="0 0 24 24" fill="currentColor">
        <path d="M10.7754 17.3477H5.8065a.2815.2815 0 1 0 0 .563h4.9689a.2815.2815 0 1 0 0-.563zm7.3195 0h-4.9688a.2815.2815 0 1 0 0 .563h4.9688a.2815.2815 0 0 0 0-.563zm-7.3336-6.475H5.8065a.2815.2815 0 1 0 0 .563h4.9548a.2815.2815 0 1 0 0-.563zm7.3195 0h-4.9547a.2815.2815 0 1 0 0 .563h4.9547a.2815.2815 0 0 0 0-.563zm.5518-9.2001h-4.341a2.4042 2.4042 0 0 0-4.5804 0H5.3674c-1.7103 0-3.0968 1.3864-3.0968 3.0967v16.134C2.2706 22.6135 3.6571 24 5.3674 24h13.2652c1.7103 0 3.0968-1.3865 3.0968-3.0967V4.7693c0-1.7103-1.3865-3.0967-3.0968-3.0967zm-8.7046.563a.2815.2815 0 0 0 .2815-.2224 1.8411 1.8411 0 0 1 3.5979 0 .2815.2815 0 0 0 .2815.2224h1.5146v1.844a.8446.8446 0 0 1-.8446.8446H9.2552a.8446.8446 0 0 1-.8446-.8446v-1.844Zm11.2383 18.6677c0 1.3993-1.1344 2.5337-2.5337 2.5337H5.3674c-1.3993 0-2.5337-1.1344-2.5337-2.5337V4.7693c0-1.3993 1.1344-2.5337 2.5337-2.5337h2.4802v1.844c0 .7774.6302 1.4076 1.4076 1.4076h5.4896c.7774 0 1.4076-.6302 1.4076-1.4076v-1.844h2.4802c1.3993 0 2.5337 1.1344 2.5337 2.5337z"/>
    </symbol>
    <symbol id="react-router" role="img" viewBox="0 0 24 24" fill="currentColor">
        <path d="M12.118 5.466a2.306 2.306 0 00-.623.08c-.278.067-.702.332-.953.583-.41.423-.49.609-.662 1.469-.08.423.41 1.43.847 1.734.45.317 1.085.502 2.065.608 1.429.16 1.84.636 1.84 2.197 0 1.377-.385 1.747-1.96 1.906-1.707.172-2.58.834-2.765 2.117-.106.781.41 1.76 1.125 2.091 1.627.768 3.15-.198 3.467-2.196.211-1.284.622-1.642 1.998-1.747 1.588-.133 2.409-.675 2.713-1.787.278-1.02-.304-2.157-1.297-2.554-.264-.106-.873-.238-1.35-.291-1.495-.16-1.879-.424-2.038-1.39-.225-1.337-.317-1.562-.794-2.09a2.174 2.174 0 00-1.613-.73zm-4.785 4.36a2.145 2.145 0 00-.497.048c-1.469.318-2.17 2.051-1.35 3.295 1.178 1.774 3.944.953 3.97-1.177.012-1.193-.98-2.143-2.123-2.166zM2.089 14.19a2.22 2.22 0 00-.427.052c-2.158.476-2.237 3.626-.106 4.182.53.145.582.145 1.111.013 1.191-.318 1.866-1.456 1.549-2.607-.278-1.02-1.144-1.664-2.127-1.64zm19.824.008c-.233.002-.477.058-.784.162-1.39.477-1.866 2.092-.98 3.336.557.794 1.96 1.058 2.82.516 1.416-.874 1.363-3.057-.093-3.746-.38-.186-.663-.271-.963-.268z"/>
    </symbol>
    <symbol id="immer" viewBox="0 0 24 24" fill="currentColor">
        <path d="M2.2706 14.3327C1.0174 14.3327 0 13.3149 0 12.0612s1.0174-2.2714 2.2706-2.2714 2.2706 1.0178 2.2706 2.2714-1.0175 2.2715-2.2706 2.2715zm19.4594.8587a3.1215 3.1215 0 0 1-1.8217-.5845c-.7428.8369-1.0466 1.047-2.0669 1.047-1.5417 0-3.1201-2.3208-4.5579-4.3146 1.4966-2.3358 2.8703-3.8786 4.3307-3.8786 1.1153 0 2.1849.4937 2.7865 1.7668a3.1155 3.1155 0 0 1 1.3291-.2958 3.1051 3.1051 0 0 1 1.1697.2262c-.88-2.5989-2.9964-3.9134-5.1127-3.9134-2.3344 0-4.0593 2.16-5.5753 4.6292-1.7833-2.4318-3.4838-4.6292-5.9239-4.6292-2.0769 0-4.154 1.2863-5.0431 3.8295a3.1179 3.1179 0 0 1 .9355-.1423 3.113 3.113 0 0 1 1.7177.5139c.546-.7723 1.2454-1.2347 2.0074-1.2095 1.5368.0516 2.9282 1.8499 4.6866 4.3248-1.2802 1.9587-2.9227 3.8683-4.3102 3.8683-1.0566 0-2.0739-.4443-2.6895-1.5742a3.1139 3.1139 0 0 1-1.412.3362c-.371.0066-.7336-.0773-1.085-.1857.9316 2.417 2.9722 3.6396 5.0129 3.6396 2.326 0 3.9314-2.0555 5.5251-4.6143 1.7485 2.4637 3.4992 4.7244 5.9921 4.7244 2.0245 0 4.2973-1.3328 5.2229-3.7499-.3583.0875-.7236.1989-1.118.1861zm-.0006-5.4016c-1.2531 0-2.2705 1.0178-2.2705 2.2714s1.0174 2.2715 2.2705 2.2715c1.2532 0 2.2706-1.0178 2.2706-2.2715s-1.0174-2.2714-2.2706-2.2714z"/>
    </symbol>
    <symbol id="vite" viewBox="0 0 24 24" fill="currentColor">
        <path d="m8.286 10.578.512-8.657a.306.306 0 0 1 .247-.282L17.377.006a.306.306 0 0 1 .353.385l-1.558 5.403a.306.306 0 0 0 .352.385l2.388-.46a.306.306 0 0 1 .332.438l-6.79 13.55-.123.19a.294.294 0 0 1-.252.14c-.177 0-.35-.152-.305-.369l1.095-5.301a.306.306 0 0 0-.388-.355l-1.433.435a.306.306 0 0 1-.389-.354l.69-3.375a.306.306 0 0 0-.37-.36l-2.32.536a.306.306 0 0 1-.374-.316zm14.976-7.926L17.284 3.74l-.544 1.887 2.077-.4a.8.8 0 0 1 .84.369.8.8 0 0 1 .034.783L12.9 19.93l-.013.025-.015.023-.122.19a.801.801 0 0 1-.672.37.826.826 0 0 1-.634-.302.8.8 0 0 1-.16-.67l1.029-4.981-1.12.34a.81.81 0 0 1-.86-.262.802.802 0 0 1-.165-.67l.63-3.08-2.027.468a.808.808 0 0 1-.768-.233.81.81 0 0 1-.217-.6l.389-6.57-7.44-1.33a.612.612 0 0 0-.64.906L11.58 23.691a.612.612 0 0 0 1.066-.004l11.26-20.135a.612.612 0 0 0-.644-.9z"/>
    </symbol>
    <symbol id="git" viewBox="0 0 24 24" fill="currentColor">
        <path d="M23.546 10.93L13.067.452c-.604-.603-1.582-.603-2.188 0L8.708 2.627l2.76 2.76c.645-.215 1.379-.07 1.889.441.516.515.658 1.258.438 1.9l2.658 2.66c.645-.223 1.387-.078 1.9.435.721.72.721 1.884 0 2.604-.719.719-1.881.719-2.6 0-.539-.541-.674-1.337-.404-1.996L12.86 8.955v6.525c.176.086.342.203.488.348.713.721.713 1.883 0 2.6-.719.721-1.889.721-2.609 0-.719-.719-.719-1.879 0-2.598.182-.18.387-.316.605-.406V8.835c-.217-.091-.424-.222-.6-.401-.545-.545-.676-1.342-.396-2.009L7.636 3.7.45 10.881c-.6.605-.6 1.584 0 2.189l10.48 10.477c.604.604 1.582.604 2.186 0l10.43-10.43c.605-.603.605-1.582 0-2.187"/>
    </symbol>
    <symbol id="git-hub" viewBox="0 0 24 24" fill="currentColor">
        <path d="M12 .297c-6.63 0-12 5.373-12 12 0 5.303 3.438 9.8 8.205 11.385.6.113.82-.258.82-.577 0-.285-.01-1.04-.015-2.04-3.338.724-4.042-1.61-4.042-1.61C4.422 18.07 3.633 17.7 3.633 17.7c-1.087-.744.084-.729.084-.729 1.205.084 1.838 1.236 1.838 1.236 1.07 1.835 2.809 1.305 3.495.998.108-.776.417-1.305.76-1.605-2.665-.3-5.466-1.332-5.466-5.93 0-1.31.465-2.38 1.235-3.22-.135-.303-.54-1.523.105-3.176 0 0 1.005-.322 3.3 1.23.96-.267 1.98-.399 3-.405 1.02.006 2.04.138 3 .405 2.28-1.552 3.285-1.23 3.285-1.23.645 1.653.24 2.873.12 3.176.765.84 1.23 1.91 1.23 3.22 0 4.61-2.805 5.625-5.475 5.92.42.36.81 1.096.81 2.22 0 1.606-.015 2.896-.015 3.286 0 .315.21.69.825.57C20.565 22.092 24 17.592 24 12.297c0-6.627-5.373-12-12-12"/>
    </symbol>
    <symbol id="eslint" role="img" viewBox="0 0 24 24" fill="currentColor">
        <path d="M7.257 9.132L11.816 6.5a.369.369 0 0 1 .368 0l4.559 2.632a.369.369 0 0 1 .184.32v5.263a.37.37 0 0 1-.184.319l-4.559 2.632a.369.369 0 0 1-.368 0l-4.559-2.632a.369.369 0 0 1-.184-.32V9.452a.37.37 0 0 1 .184-.32M23.852 11.53l-5.446-9.475c-.198-.343-.564-.596-.96-.596H6.555c-.396 0-.762.253-.96.596L.149 11.509a1.127 1.127 0 0 0 0 1.117l5.447 9.398c.197.342.563.517.959.517h10.893c.395 0 .76-.17.959-.512l5.446-9.413a1.069 1.069 0 0 0 0-1.086m-4.51 4.556a.4.4 0 0 1-.204.338L12.2 20.426a.395.395 0 0 1-.392 0l-6.943-4.002a.4.4 0 0 1-.205-.338V8.08c0-.14.083-.269.204-.338L11.8 3.74c.12-.07.272-.07.392 0l6.943 4.003a.4.4 0 0 1 .206.338z"/>
    </symbol>
    <symbol id="phosphor" fill="currentColor" viewBox="0 0 256 256" >
        <path d="M144,24H64a8,8,0,0,0-8,8V160a80.09,80.09,0,0,0,80,80,8,8,0,0,0,8-8V168a72,72,0,0,0,0-144ZM72,62.54,122.32,152H72Zm56,66.92L77.68,40H128ZM72.51,168H128v55.5A64.14,64.14,0,0,1,72.51,168ZM144,152V40a56,56,0,0,1,0,112Z"/>
    </symbol>
    <symbol id="radix-ui" viewBox="0 0 25 25" fill="currentColor">
        <path d="M12 25C7.58173 25 4 21.4183 4 17C4 12.5817 7.58173 9 12 9V25Z" fill="currentColor"/>
        <path d="M12 0H4V8H12V0Z" fill="currentColor"/>
        <path d="M17 8C19.2091 8 21 6.20914 21 4C21 1.79086 19.2091 0 17 0C14.7909 0 13 1.79086 13 4C13 6.20914 14.7909 8 17 8Z" fill="currentColor"/>
    </symbol>
    <symbol id="axios" viewBox="0 0 24 24" fill="currentColor">
        <path d="M11.0683 2.89968V22.2973l-2.11399 1.70265V7.8638H4.975l6.0933-4.96412zM14.93426 0v15.76724H19.025l-6.20044 5.08865V1.4689L14.93426 0z"/>
    </symbol>
    <symbol id="vscode" fill="currentColor" viewBox="0 0 32 32">
        <path d="M30.865 3.448l-6.583-3.167c-0.766-0.37-1.677-0.214-2.276 0.385l-12.609 11.505-5.495-4.167c-0.51-0.391-1.229-0.359-1.703 0.073l-1.76 1.604c-0.583 0.526-0.583 1.443-0.005 1.969l4.766 4.349-4.766 4.349c-0.578 0.526-0.578 1.443 0.005 1.969l1.76 1.604c0.479 0.432 1.193 0.464 1.703 0.073l5.495-4.172 12.615 11.51c0.594 0.599 1.505 0.755 2.271 0.385l6.589-3.172c0.693-0.333 1.13-1.031 1.13-1.802v-21.495c0-0.766-0.443-1.469-1.135-1.802zM24.005 23.266l-9.573-7.266 9.573-7.266z"/>
    </symbol>
    <symbol id="bootstrap" fill="currentColor" viewBox="0 0 16 16">
        <path d="M6.375 7.125V4.658h1.78c.973 0 1.542.457 1.542 1.237 0 .802-.604 1.23-1.764 1.23zm0 3.762h1.898c1.184 0 1.81-.48 1.81-1.377 0-.885-.65-1.348-1.886-1.348H6.375z"/>
        <path d="M4.002 0a4 4 0 0 0-4 4v8a4 4 0 0 0 4 4h8a4 4 0 0 0 4-4V4a4 4 0 0 0-4-4zm1.06 12V3.545h3.399c1.587 0 2.543.809 2.543 2.11 0 .884-.65 1.675-1.483 1.816v.1c1.143.117 1.904.931 1.904 2.033 0 1.488-1.084 2.396-2.888 2.396z"/>
    </symbol>
    <symbol id="seo" fill="currentColor"  viewBox="0 0 64.325 64.325">
        <g><g>
            <path d="M5.865,34.72c-1.906,0-3.754-0.614-4.957-1.231L0,37.184c1.114,0.616,3.344,1.202,5.602,1.202    c5.426,0,7.977-2.815,7.977-6.129c0-2.786-1.643-4.604-5.132-5.895c-2.552-0.969-3.666-1.525-3.666-2.786    c0-1.027,0.938-1.907,2.874-1.907s3.344,0.558,4.135,0.939l0.998-3.607c-1.174-0.528-2.816-0.997-5.045-0.997    c-4.663,0-7.479,2.58-7.479,5.953c0,2.874,2.141,4.692,5.426,5.836c2.375,0.851,3.314,1.555,3.314,2.785    C9.004,33.87,7.918,34.72,5.865,34.72z"/>
            <polygon points="29.211,34.427 21.088,34.427 21.088,29.735 28.36,29.735 28.36,26.098 21.088,26.098 21.088,21.992     28.801,21.992 28.801,18.326 16.6,18.326 16.6,38.093 29.211,38.093   "/>
            <path d="M44.326,39.593c2.775,0,5.318-0.999,7.298-2.653l3.937,3.674c-0.006,0.41,0.143,0.816,0.465,1.117l5.777,5.394    c0.289,0.27,0.655,0.403,1.022,0.403c0.401,0,0.802-0.16,1.097-0.478c0.565-0.604,0.532-1.556-0.072-2.12l-5.777-5.393    c-0.322-0.301-0.74-0.42-1.146-0.387l-3.885-3.625c1.671-1.983,2.684-4.541,2.684-7.332c0-6.285-5.112-11.397-11.397-11.397    S32.929,21.91,32.929,28.194C32.928,34.481,38.041,39.593,44.326,39.593z M44.326,19.797c4.631,0,8.398,3.767,8.398,8.397    c0,4.63-3.769,8.398-8.398,8.398s-8.398-3.768-8.398-8.398C35.928,23.564,39.695,19.797,44.326,19.797z"/>
        </g></g>
    </symbol>
    <symbol id="hosting" fill="currentColor" viewBox="0 0 400.001 400">
        <g><g><path d="M373.509,51.66H352.76V33.114c0-7.312-5.932-13.246-13.246-13.246H60.485c-7.314,0-13.246,5.935-13.246,13.246v68.875    c0,7.316,5.932,13.245,13.246,13.245h279.029c7.314,0,13.246-5.929,13.246-13.245V78.146h20.749v243.711H352.76v-23.842    c0-7.316-5.932-13.246-13.246-13.246H60.485c-7.314,0-13.246,5.93-13.246,13.246v23.842H26.491v-108.61H47.24v21.19    c0,7.313,5.932,13.244,13.246,13.244h279.029c7.314,0,13.246-5.931,13.246-13.244v-68.872c0-7.315-5.932-13.245-13.246-13.245    H60.485c-7.314,0-13.246,5.93-13.246,13.245v21.19H26.491C11.885,186.756,0,198.64,0,213.246v108.609    c0,14.606,11.884,26.486,26.491,26.486H47.24v18.546c0,7.313,5.932,13.246,13.246,13.246h279.029    c7.314,0,13.246-5.935,13.246-13.246v-18.546h20.749c14.606,0,26.491-11.88,26.491-26.486V78.148    C400,63.54,388.115,51.66,373.509,51.66z M109.052,88.304c-11.462,0-20.751-9.293-20.751-20.75    c0-11.462,9.29-20.751,20.751-20.751c11.459,0,20.749,9.289,20.749,20.751C129.801,79.011,120.511,88.304,109.052,88.304z     M219.867,80.798c0,5.483-4.448,9.931-9.937,9.931c-5.485,0-9.933-4.447-9.933-9.931V54.31c0-5.488,4.446-9.936,9.933-9.936    c5.487,0,9.937,4.447,9.937,9.936V80.798z M264.016,80.798c0,5.483-4.445,9.931-9.933,9.931c-5.485,0-9.933-4.447-9.933-9.931    V54.31c0-5.488,4.446-9.936,9.933-9.936s9.933,4.447,9.933,9.936V80.798z M308.167,80.798c0,5.483-4.446,9.931-9.935,9.931    c-5.486,0-9.934-4.447-9.934-9.931V54.31c0-5.488,4.446-9.936,9.934-9.936c5.486,0,9.935,4.447,9.935,9.936V80.798z     M288.3,186.759c0-5.486,4.446-9.936,9.934-9.936c5.486,0,9.935,4.449,9.935,9.936v26.488c0,5.486-4.446,9.937-9.935,9.937    c-5.486,0-9.934-4.449-9.934-9.937V186.759z M244.15,186.759c0-5.486,4.446-9.936,9.933-9.936s9.933,4.449,9.933,9.936v26.488    c0,5.486-4.445,9.937-9.933,9.937c-5.485,0-9.933-4.449-9.933-9.937V186.759z M200,186.759c0-5.486,4.447-9.936,9.934-9.936    c5.485,0,9.936,4.449,9.936,9.936v26.488c0,5.486-4.448,9.937-9.936,9.937c-5.486,0-9.934-4.45-9.934-9.937V186.759z     M109.052,179.25c11.459,0,20.749,9.29,20.749,20.752s-9.29,20.752-20.749,20.752c-11.462,0-20.751-9.29-20.751-20.752    S97.59,179.25,109.052,179.25z M109.052,353.203c-11.462,0-20.751-9.289-20.751-20.751c0-11.457,9.29-20.75,20.751-20.75    c11.459,0,20.749,9.293,20.749,20.75C129.801,343.914,120.511,353.203,109.052,353.203z M219.867,345.696    c0,5.487-4.448,9.936-9.937,9.936c-5.485,0-9.933-4.446-9.933-9.936v-26.488c0-5.481,4.446-9.93,9.933-9.93    c5.487,0,9.937,4.445,9.937,9.93V345.696z M264.016,345.696c0,5.487-4.445,9.936-9.933,9.936c-5.485,0-9.933-4.446-9.933-9.936    v-26.488c0-5.481,4.446-9.93,9.933-9.93s9.933,4.445,9.933,9.93V345.696z M308.167,345.696c0,5.487-4.446,9.936-9.935,9.936    c-5.486,0-9.934-4.446-9.934-9.936v-26.488c0-5.481,4.446-9.93,9.934-9.93c5.486,0,9.935,4.445,9.935,9.93V345.696z"/>
	    </g></g>
    </symbol>
    <symbol id="responsive" fill="currentColor" viewBox="0 0 47.168 47.168">
        <g><g id="Layer_68_6_"><g>
            <path d="M47.168,36.918V6.699H0v30.219h19.252v1.945H9.188v1.605h28.179v-1.605h-9.846v-1.945H47.168z M3.45,32.469V10.149     h40.267v22.317H3.45V32.469z"/>
            <path d="M19.403,25.084H10.04l-2.774,0.141v1.908h18.281v-2.049h-5.595H19.403z M22.403,26.344h-5.777v-0.383h5.777V26.344z"/>
            <polygon points="11.484,13.228 27.873,13.228 27.873,13.696 29.318,13.696 29.318,11.782 10.04,11.782 10.04,24.494      25.546,24.494 25.546,23.051 11.484,23.051    "/>
            <path d="M27.807,15.921h7.137v2.608h1.451v-4.061H26.355v15.057h5.713v-1.238c0,0.268-0.215,0.484-0.483,0.484     s-0.483-0.217-0.483-0.484s0.217-0.482,0.483-0.482s0.483,0.215,0.483,0.482v-1.258h-4.262V15.921L27.807,15.921z"/>
            <path d="M32.883,31.014h7.021V19.203h-7.021V31.014z M36.482,30.506c-0.225,0-0.405-0.184-0.405-0.406s0.181-0.404,0.405-0.404     c0.224,0,0.404,0.182,0.404,0.404S36.706,30.506,36.482,30.506z M36.549,19.692c0.094,0,0.169,0.076,0.169,0.17     c0,0.093-0.075,0.169-0.169,0.169s-0.17-0.076-0.17-0.169S36.455,19.692,36.549,19.692z M35.54,20.259h2.021v0.163H35.54V20.259z      M34.009,21.003l4.769-0.002v8.114c-1.823,0.008-3.863,0.016-4.769,0.008V21.003z"/>
        </g></g></g>
    </symbol>
    <symbol id="api" fill="currentColor" viewBox="0 0 511 511">
        <g>
            <path d="M492.168,309.579l-17.626-10.177c2.96-14.723,4.458-29.466,4.458-43.902c0-14.646-1.474-29.403-4.384-43.946l17.552-10.134   c5.436-3.138,9.325-8.206,10.949-14.269s0.791-12.396-2.348-17.832l-48-83.139c-3.139-5.436-8.206-9.325-14.269-10.949   c-6.064-1.624-12.396-0.791-17.833,2.348l-17.566,10.142C380.912,68.2,354.798,53.092,327,43.692V23.5   C327,10.542,316.458,0,303.5,0h-96C194.542,0,184,10.542,184,23.5v20.193c-27.65,9.362-53.728,24.49-75.999,44.088L90.332,77.579   c-5.437-3.139-11.77-3.973-17.833-2.348c-6.063,1.625-11.13,5.513-14.269,10.949l-48,83.139   c-3.139,5.436-3.972,11.769-2.348,17.832s5.513,11.131,10.949,14.269l17.626,10.177C33.499,226.32,32,241.063,32,255.5   c0,14.644,1.474,29.401,4.384,43.945l-17.552,10.134c-11.222,6.479-15.08,20.879-8.602,32.102l48,83.139   c6.479,11.221,20.879,15.08,32.102,8.601l17.565-10.142c22.19,19.521,48.303,34.629,76.103,44.03V487.5   c0,12.958,10.542,23.5,23.5,23.5h96c12.958,0,23.5-10.542,23.5-23.5v-20.193c27.651-9.362,53.729-24.49,76-44.087l17.668,10.201   c11.221,6.479,25.623,2.62,32.102-8.601l48-83.139C507.248,330.458,503.39,316.058,492.168,309.579z M487.779,334.181l-48,83.138   c-2.343,4.06-7.552,5.455-11.611,3.111l-22.392-12.928c-2.845-1.643-6.43-1.242-8.842,0.989   c-22.893,21.173-50.437,37.148-79.653,46.199c-3.14,0.973-5.281,3.877-5.281,7.164V487.5c0,4.687-3.813,8.5-8.5,8.5h-96   c-4.687,0-8.5-3.813-8.5-8.5v-25.645c0-3.287-2.141-6.191-5.28-7.164c-29.396-9.107-56.974-25.062-79.755-46.139   c-1.421-1.315-3.25-1.995-5.095-1.995c-1.286,0-2.579,0.33-3.748,1.005L82.832,420.43c-4.06,2.343-9.268,0.948-11.611-3.111   l-48-83.138c-2.343-4.059-0.947-9.268,3.111-11.612l22.272-12.859c2.844-1.642,4.289-4.942,3.566-8.146   C48.739,286.357,47,270.858,47,255.5c0-15.1,1.765-30.584,5.247-46.022c0.722-3.203-0.723-6.504-3.566-8.145L26.332,188.43   c-1.966-1.135-3.372-2.968-3.96-5.161c-0.587-2.193-0.286-4.484,0.849-6.45l48-83.139c1.135-1.966,2.968-3.373,5.162-3.96   c2.192-0.588,4.484-0.286,6.45,0.849l22.392,12.928c2.846,1.644,6.43,1.242,8.842-0.989c22.894-21.173,50.437-37.148,79.653-46.199   c3.14-0.973,5.281-3.877,5.281-7.164V23.5c0-4.687,3.813-8.5,8.5-8.5h96c4.687,0,8.5,3.813,8.5,8.5v25.645   c0,3.287,2.141,6.191,5.28,7.164c29.395,9.106,56.973,25.061,79.755,46.139c2.412,2.232,5.997,2.633,8.843,0.99l22.29-12.869   c1.967-1.135,4.258-1.437,6.45-0.849c2.193,0.588,4.026,1.994,5.162,3.96l48,83.139c1.135,1.966,1.437,4.257,0.849,6.45   c-0.588,2.193-1.994,4.026-3.96,5.161l-22.272,12.859c-2.844,1.642-4.289,4.943-3.566,8.146c3.431,15.206,5.17,30.704,5.17,46.065   c0,15.1-1.765,30.584-5.247,46.021c-0.722,3.203,0.723,6.503,3.566,8.145l22.349,12.903   C488.727,324.913,490.123,330.122,487.779,334.181z"/>
            <path d="M255.5,104C171.962,104,104,171.963,104,255.5S171.962,407,255.5,407S407,339.037,407,255.5S339.038,104,255.5,104z    M255.5,392C180.234,392,119,330.766,119,255.5S180.234,119,255.5,119S392,180.234,392,255.5S330.766,392,255.5,392z"/>
            <path d="M283.5,216h-28c-4.142,0-7.5,3.358-7.5,7.5v64c0,4.142,3.358,7.5,7.5,7.5s7.5-3.358,7.5-7.5V271h20.5   c15.164,0,27.5-12.336,27.5-27.5S298.664,216,283.5,216z M283.5,256H263v-25h20.5c6.893,0,12.5,5.607,12.5,12.5   S290.393,256,283.5,256z"/>
            <path d="M214.522,220.867c-1.098-2.927-3.896-4.867-7.022-4.867h-8c-3.126,0-5.925,1.939-7.022,4.867l-24,64   c-1.455,3.878,0.511,8.201,4.389,9.656c3.878,1.455,8.201-0.511,9.656-4.389L186.697,279h33.605l4.175,11.133   c1.129,3.011,3.987,4.869,7.023,4.869c0.875,0,1.765-0.154,2.632-0.479c3.878-1.454,5.844-5.778,4.389-9.656L214.522,220.867z    M192.322,264l11.178-29.807L214.678,264H192.322z"/>
            <path d="M327.5,216c-4.142,0-7.5,3.358-7.5,7.5v64c0,4.142,3.358,7.5,7.5,7.5s7.5-3.358,7.5-7.5v-64   C335,219.358,331.642,216,327.5,216z"/>
            <path d="M309.152,87.3c5.205,1.659,10.394,3.586,15.421,5.726c0.958,0.408,1.954,0.601,2.934,0.601c2.916,0,5.69-1.712,6.904-4.564   c1.622-3.811-0.152-8.216-3.963-9.838c-5.458-2.323-11.09-4.415-16.742-6.216c-3.945-1.258-8.165,0.922-9.423,4.868   C303.026,81.823,305.206,86.042,309.152,87.3z"/>
            <path d="M100.45,339.904c-1.984-3.636-6.541-4.976-10.176-2.992c-3.636,1.984-4.976,6.54-2.992,10.176   c3.112,5.704,6.557,11.315,10.239,16.677c1.454,2.117,3.801,3.255,6.189,3.255c1.463,0,2.941-0.427,4.239-1.318   c3.415-2.345,4.282-7.014,1.937-10.428C106.493,350.332,103.318,345.161,100.45,339.904z"/>
            <path d="M240.14,431.341c-40.189-3.463-78.337-20.879-107.416-49.041c-2.976-2.882-7.724-2.805-10.605,0.17   c-2.881,2.976-2.806,7.724,0.17,10.605c31.55,30.555,72.947,49.452,116.563,53.21c0.219,0.019,0.436,0.028,0.652,0.028   c3.851,0,7.127-2.949,7.464-6.856C247.323,435.331,244.266,431.697,240.14,431.341z"/>
            <path d="M363.425,97.287c-3.42-2.337-8.087-1.459-10.424,1.96c-2.337,3.42-1.459,8.087,1.96,10.424   c34.844,23.813,60.049,59.248,70.972,99.776c0.902,3.346,3.93,5.55,7.237,5.55c0.646,0,1.303-0.084,1.956-0.26   c4-1.078,6.368-5.194,5.29-9.193C428.564,161.564,401.221,123.118,363.425,97.287z"/>
        </g>
    </symbol>
    <symbol id="python" viewBox="0 0 32 32">
        <path fill="currentColor" d="M13.275 15.88h5.417c1.508 0 2.712-1.241 2.712-2.756v-5.164c0-1.47-1.24-2.574-2.712-2.819-0.932-0.155-1.898-0.226-2.825-0.221s-1.813 0.083-2.592 0.221c-2.295 0.405-2.712 1.254-2.712 2.819v2.067h5.423v0.689h-7.459c-1.576 0-2.956 0.947-3.388 2.75-0.498 2.066-0.52 3.355 0 5.512 0.385 1.606 1.306 2.75 2.882 2.75h1.865v-2.478c0-1.79 1.549-3.369 3.388-3.369zM12.933 8.649c-0.562 0-1.018-0.461-1.018-1.030 0-0.572 0.455-1.037 1.018-1.037 0.56 0 1.018 0.465 1.018 1.037 0 0.57-0.457 1.030-1.018 1.030zM26.826 13.465c-0.389-1.569-1.133-2.75-2.712-2.75h-2.035v2.408c0 1.867-1.583 3.439-3.388 3.439h-5.417c-1.484 0-2.712 1.27-2.712 2.756v5.164c0 1.47 1.278 2.334 2.712 2.756 1.717 0.505 3.363 0.596 5.417 0 1.365-0.395 2.712-1.191 2.712-2.756v-2.067h-5.417v-0.689h8.129c1.576 0 2.163-1.099 2.712-2.75 0.566-1.699 0.542-3.332 0-5.512zM19.033 23.794c0.562 0 1.018 0.461 1.018 1.030 0 0.572-0.456 1.037-1.018 1.037-0.56 0-1.018-0.465-1.018-1.037 0-0.57 0.457-1.030 1.018-1.030z"/>
    </symbol>


</svg>